# xmcd
#
# Track frame offsets: 
#        150
#        22404
#        45756
#        67390
#        80391
#        100190
#        122386
#        146782
#        155517
#        183317
#        200258
#        221830
#        236763
#        252141
#        272637
#        285670
#        306141
#
# Disc length: 4285 seconds
#
# Revision: 4
# Processed by: cddbd v1.5.2PL0 Copyright (c) Steve Scherf et al.
# Submitted via: ExactAudioCopyFreeDBPlugin 1.0
#
DISCID=f810bb11
DTITLE=Blackmore's Night - The Village Lanterne
DYEAR=2006
DGENRE=Folk
TTITLE0=25 Years
TTITLE1=Village Lanterne
TTITLE2=I Guess It Doesn't Matter Anymore
TTITLE3=The Messenger (Instrumental)
TTITLE4=World Of Stone
TTITLE5=Faerie Queen-Faerie Dance
TTITLE6=St. Teresa
TTITLE7=Village Dance (Instrumental)
TTITLE8=Mond Tanz - Child in Time
TTITLE9=Streets of London
TTITLE10=Just Call My Name (I'll be There)
TTITLE11=Olde Mill Inn
TTITLE12=Windmills
TTITLE13=Street of Dreams
TTITLE14=Call It Love
TTITLE15=Street of Dreams (Featuring Joe Lynn Turner)
TTITLE16=All Because of You (Radio Edit)
EXTD=YEAR: 2006
EXTT0=
EXTT1=
EXTT2=
EXTT3=
EXTT4=
EXTT5=
EXTT6=
EXTT7=
EXTT8=
EXTT9=
EXTT10=
EXTT11=
EXTT12=
EXTT13=
EXTT14=
EXTT15=
EXTT16=
PLAYORDER=
